<svg
        xmlns:dc="http://purl.org/dc/elements/1.1/"
        xmlns:cc="http://creativecommons.org/ns#"
        xmlns:rdf="http://www.w3.org/1999/02/22-rdf-syntax-ns#"
        xmlns:svg="http://www.w3.org/2000/svg"
        xmlns="http://www.w3.org/2000/svg"
        xmlns:sodipodi="http://sodipodi.sourceforge.net/DTD/sodipodi-0.dtd"
        xmlns:inkscape="http://www.inkscape.org/namespaces/inkscape"
        width="141.775"
        height="133.175"
        viewBox="0 0 283.55 266.35"
        overflow="visible"
        enable-background="new 0 0 283.55 213.08"
        xml:space="preserve"
        x="0px"
        y="0px"
        id="svg2"
        version="1.1"
        inkscape:version="0.91 r13725"
        sodipodi:docname="Q625994_noun_604068_ccJesusPuertas_conference.svg"><metadata
     id="metadata14"><rdf:RDF><cc:Work
         rdf:about=""><dc:format>image/svg+xml</dc:format><dc:type
        rdf:resource="http://purl.org/dc/dcmitype/StillImage" /><dc:title></dc:title></cc:Work></rdf:RDF></metadata><defs
        id="defs12" /><sodipodi:namedview
        pagecolor="#ffffff"
        bordercolor="#666666"
        borderopacity="1"
        objecttolerance="10"
        gridtolerance="10"
        guidetolerance="10"
        inkscape:pageopacity="0"
        inkscape:pageshadow="2"
        inkscape:window-width="1280"
        inkscape:window-height="1002"
        id="namedview10"
        showgrid="false"
        inkscape:zoom="1.253067"
        inkscape:cx="103.13179"
        inkscape:cy="18.9634"
        inkscape:window-x="-8"
        inkscape:window-y="18"
        inkscape:window-maximized="1"
        inkscape:current-layer="svg2" /><path
        d="m 94.74,99.73 0.77,-0.03 -0.77,0.03 z M 168.2,98.5 c -3.51,-0.2 -7.02,-0.35 -10.53,-0.47 l -3.61,-9.04 c -2.03,-5.08 4.9,-8.21 7.39,-3.44 l 6.75,12.95 z m -42.31,-0.47 c -3.51,0.12 -7.02,0.27 -10.53,0.47 l 6.75,-12.95 c 2.48,-4.76 9.42,-1.64 7.39,3.44 l -3.61,9.04 z m 72.15,136.86 -0.01,-13.64 c 0,-15.55 18.24,-31.69 30.74,-38.46 12.14,7.95 28.46,4.6 36.59,-7.36 6.92,1.65 13.07,6.15 16.3,12.55 0.52,1.04 1.85,4.2 1.9,5.4 0.06,1.29 -2.55,5.93 -3.33,7.07 -14.26,20.91 -58.92,30.9 -82.19,34.44 z M 18.22,175.37 c 8.11,12.01 24.46,15.39 36.63,7.42 12.5,6.77 30.74,22.91 30.74,38.46 l -0.01,13.62 C 62.24,231.31 19.44,221.64 4.35,201.61 c -1.19,-1.58 -4.44,-6.99 -4.34,-8.93 0.06,-1.26 1.3,-4.23 1.85,-5.32 3.23,-6.31 9.51,-10.49 16.36,-11.99 z m 45.79,-16.69 c 0,12.9 -10.5,23.4 -23.4,23.4 -12.9,0 -23.4,-10.5 -23.4,-23.4 0,-12.9 10.5,-23.4 23.4,-23.4 12.9,0 23.4,10.5 23.4,23.4 z m 53.88,4.76 c 0,-13.25 10.78,-24.02 24.02,-24.02 13.25,0 24.02,10.78 24.02,24.02 0,13.25 -10.78,24.02 -24.02,24.02 -13.24,0 -24.02,-10.77 -24.02,-24.02 z m -28.85,71.95 -0.01,-19.38 c 0,-17.18 23.27,-26.01 37.08,-28.44 9.42,6.74 22.2,6.74 31.62,0 13.81,2.43 37.08,11.27 37.08,28.44 l -0.02,19.37 c -34.8,4.93 -70.95,4.93 -105.75,0.01 z M 67.75,141.21 c 0,-12.21 9.93,-22.14 22.14,-22.14 12.21,0 22.14,9.93 22.14,22.14 0,12.21 -9.93,22.14 -22.14,22.14 -12.22,0 -22.14,-9.93 -22.14,-22.14 z m 0.21,19.09 3.04,-1.05 c 9.3,10.27 25.08,11.51 35.84,2.77 2.47,1.09 4.85,2.35 7.15,3.76 0.58,6.98 3.83,13.58 8.98,18.31 -13.56,2.8 -31.49,10.36 -36.62,24.44 -5.68,-11.84 -17.13,-22.22 -28.44,-28.61 5.91,-4.82 9.6,-12.01 10.05,-19.62 z m 101.9,5.3 c 2.2,-1.34 4.49,-2.54 6.86,-3.58 10.77,8.74 26.55,7.5 35.84,-2.77 l 3.09,1.07 c 0.41,7.61 4.07,14.82 9.95,19.66 -11.21,6.35 -22.51,16.6 -28.22,28.3 -5.27,-13.92 -23.03,-21.39 -36.53,-24.18 5.21,-4.78 8.47,-11.46 9.01,-18.5 z m 45.95,-24.39 c 0,12.21 -9.93,22.14 -22.14,22.14 -12.21,0 -22.14,-9.93 -22.14,-22.14 0,-12.21 9.93,-22.14 22.14,-22.14 12.21,0 22.14,9.93 22.14,22.14 z m 3.8,17.6 c 0,-12.9 10.5,-23.4 23.4,-23.4 12.9,0 23.4,10.5 23.4,23.4 0,12.9 -10.5,23.4 -23.4,23.4 -12.91,0 -23.4,-10.49 -23.4,-23.4 z M 121.9,45.88 c 0,-10.96 8.91,-19.88 19.88,-19.88 10.97,0 19.88,8.92 19.88,19.88 0,10.97 -8.92,19.88 -19.88,19.88 -10.97,0.01 -19.88,-8.91 -19.88,-19.88 z m -54.25,72.24 0,-13.5 c 9.97,-2.2 20.08,-3.84 30.23,-4.97 0.01,-3.69 -0.06,-7.41 0.02,-11.1 0.29,-13.49 19.88,-20.8 30.66,-22.7 7.77,5.57 18.4,5.57 26.17,0 12.01,2.12 30.69,11.11 30.69,25.54 l 0.02,8.29 c 10.22,1.19 20.41,2.79 30.45,5.01 l 0,13.49 c -45.35,-8.45 -102.91,-8.45 -148.24,-0.06 z"
        id="path4"
        inkscape:connector-curvature="0"
        style="clip-rule:evenodd;fill-rule:evenodd" /></svg>